<svg xmlns="http://www.w3.org/2000/svg" viewBox="0 0 237 180" width="237" height="180">
	<defs>
		<linearGradient id="grd1" gradientUnits="userSpaceOnUse"  x1="3340.449" y1="1406.989" x2="2261.108" y2="2074.41">
			<stop offset="0" stop-color="#78b46a"  />
			<stop offset="3" stop-color="#7f3500"  />
			<stop offset="100" stop-color="#ffffff"  />
		</linearGradient>
		<linearGradient id="grd2" gradientUnits="userSpaceOnUse"  x1="3652.058" y1="870.606" x2="1373.017" y2="1740.177">
			<stop offset="0" stop-color="#78b46a"  />
			<stop offset="3" stop-color="#7f3500"  />
			<stop offset="100" stop-color="#ffffff"  />
		</linearGradient>
		<linearGradient id="grd3" gradientUnits="userSpaceOnUse"  x1="2161.88" y1="466.735" x2="618.7" y2="1269.173">
			<stop offset="0" stop-color="#78b46a"  />
			<stop offset="3" stop-color="#7f3500"  />
			<stop offset="100" stop-color="#ffffff"  />
		</linearGradient>
		<linearGradient id="grd4" gradientUnits="userSpaceOnUse"  x1="5367.843" y1="2154.714" x2="4491.089" y2="1971.107">
			<stop offset="0" stop-color="#ffffff" stop-opacity="0" />
			<stop offset="99" stop-color="#dc841e"  />
		</linearGradient>
		<linearGradient id="grd5" gradientUnits="userSpaceOnUse"  x1="3595.194" y1="830.995" x2="1316.815" y2="1744.208">
			<stop offset="0" stop-color="#78b46a"  />
			<stop offset="3" stop-color="#7f3500"  />
			<stop offset="100" stop-color="#ffffff"  />
		</linearGradient>
	</defs>
	<style>
		tspan { white-space:pre }
		.shp0 { fill: #5b36a0 } 
		.shp1 { fill: #6862e6 } 
		.shp2 { opacity: 0.251;mix-blend-mode: multiply;fill: url(#grd1) } 
		.shp3 { opacity: 0.251;mix-blend-mode: multiply;fill: url(#grd2) } 
		.shp4 { opacity: 0.459;mix-blend-mode: multiply;fill: url(#grd3) } 
		.shp5 { fill: #68e1fd } 
		.shp6 { fill: #974c26 } 
		.shp7 { fill: #999a1c } 
		.shp8 { fill: #a1482d } 
		.shp9 { fill: #f47b56 } 
		.shp10 { fill: #ffffff } 
		.shp11 { fill: #ab643c } 
		.shp12 { opacity: 0.322;fill: url(#grd4) } 
		.shp13 { fill: #e2ac00 } 
		.shp14 { fill: #f2f2f2 } 
		.shp15 { fill: #ff8f6f } 
		.shp16 { fill: #003b94 } 
		.shp17 { fill: #3e2928 } 
		.shp18 { fill: #ffb5a9 } 
		.shp19 { fill: #007f68 } 
		.shp20 { opacity: 0.251;mix-blend-mode: multiply;fill: url(#grd5) } 
		.shp21 { fill: #000000 } 
		.shp22 { fill: #ff9271 } 
		.shp23 { fill: #df5c34 } 
	</style>
	<g id="Layer">
		<g id="Layer">
			<path id="Layer" class="shp0" d="M114.99 178.1L4.68 112.92C1.16 110.95 -1.85 107.71 1.58 105.59L112.29 41.8C113.95 40.77 116.47 40.09 118.16 41.08L233.94 108.27C237.46 110.31 238.09 115.99 234.59 118.04L129.53 177.99C128.43 178.63 127.26 179.12 126.03 179.46C124.81 179.79 123.55 179.96 122.28 179.97C121.01 179.98 119.74 179.83 118.51 179.51C117.28 179.19 116.1 178.72 114.99 178.1L114.99 178.1Z" />
			<path id="Layer" class="shp1" d="M114.99 175.09L4.68 109.91C1.16 107.94 -1.85 104.7 1.58 102.58L112.29 38.79C113.95 37.76 116.47 37.09 118.16 38.07L233.94 105.26C237.46 107.3 238.09 112.98 234.59 115.04L129.53 174.98C128.43 175.62 127.26 176.11 126.03 176.45C124.81 176.78 123.55 176.95 122.28 176.96C121.01 176.97 119.74 176.82 118.51 176.5C117.28 176.18 116.1 175.71 114.99 175.09L114.99 175.09Z" />
			<path id="Layer" class="shp2" d="M124.09 89.09L102.32 101.51C102.32 101.51 135.86 121.97 142.71 124.85L155.25 106.84" />
			<path id="Layer" class="shp3" d="M116.57 148.67L94.8 136.28L73.02 148.69C73.02 148.69 84.36 155.61 95.2 161.97C102.08 157.1 108.97 152.18 116.57 148.67L116.57 148.67Z" />
			<path id="Layer" class="shp4" d="M69.66 72.14L55.85 80.02C55.85 80.02 57.02 87.24 63.88 90.12L81.96 78.55" />
			<path id="Layer" class="shp5" d="M76.42 80.02C71.81 80.02 68.09 77.4 68.09 74.16C68.09 70.91 71.81 68.29 76.42 68.29C81.02 68.29 84.75 70.91 84.75 74.16C84.75 77.4 81.02 80.02 76.42 80.02Z" />
			<path id="Layer" class="shp6" d="M76.41 73.25C72.96 73.25 70.17 72.11 70.17 70.69C70.17 69.28 72.96 68.14 76.41 68.14C79.86 68.14 82.65 69.28 82.65 70.69C82.65 72.11 79.86 73.25 76.41 73.25Z" />
			<path id="Layer" fill-rule="evenodd" class="shp7" d="M76.19 66.44C76.18 67.88 76.11 69.32 75.96 70.75C75.46 70.06 74.97 69.34 74.46 68.53C74.29 68.28 74.13 68.02 73.97 67.75C73.81 67.49 73.65 67.23 73.5 66.96C73.34 66.7 73.19 66.43 73.04 66.16C72.9 65.89 72.75 65.62 72.61 65.35C72.48 65.11 72.35 64.87 72.23 64.62C72.11 64.37 71.99 64.12 71.88 63.87C71.77 63.62 71.66 63.37 71.56 63.11C71.46 62.86 71.36 62.6 71.27 62.34C71.14 61.99 71.02 61.63 70.9 61.27C70.79 60.91 70.68 60.54 70.59 60.18C70.49 59.81 70.4 59.44 70.32 59.08C70.24 58.71 70.17 58.33 70.11 57.96L70.11 57.58C70.06 56.98 70 56.34 70 55.69C70 55.15 70.02 54.6 70.07 54.06C70.12 53.52 70.19 52.98 70.3 52.44C70.4 51.91 70.53 51.38 70.69 50.86C70.85 50.33 71.04 49.82 71.25 49.32C71.81 50.13 72.32 50.98 72.79 51.84C73.27 52.71 73.69 53.61 74.06 54.52C74.44 55.44 74.76 56.37 75.03 57.32C75.31 58.27 75.53 59.23 75.7 60.21C75.74 60.44 75.78 60.67 75.82 60.91C75.82 60.86 75.91 61.33 75.91 61.51L75.97 62.09C76 62.39 76.03 62.68 76.06 62.98C76.15 64.14 76.19 65.29 76.19 66.44L76.19 66.44ZM72.91 53.49C72.91 53.49 72.91 53.49 72.91 53.49C72.91 53.49 72.91 53.49 72.91 53.49L72.91 53.49ZM72.91 53.49C72.95 53.49 72.99 53.49 73.03 53.49C73.07 53.49 73.11 53.49 73.15 53.5C73.19 53.5 73.23 53.51 73.27 53.52C73.31 53.52 73.34 53.53 73.38 53.54C73.23 53.37 73.07 53.2 72.91 53.04C72.92 53.08 72.93 53.12 72.93 53.15C72.94 53.19 72.94 53.23 72.94 53.27C72.94 53.3 72.94 53.34 72.93 53.38C72.93 53.42 72.92 53.45 72.91 53.49Z" />
			<path id="Layer" fill-rule="evenodd" class="shp7" d="M78.33 67.33C77.55 68.54 76.69 69.71 75.83 70.85C75.78 70.01 75.78 69.13 75.78 68.17C75.77 67.87 75.78 67.56 75.78 67.25C75.79 66.95 75.8 66.64 75.82 66.34C75.83 66.03 75.85 65.72 75.87 65.42C75.89 65.11 75.91 64.81 75.94 64.5C75.96 64.23 75.99 63.95 76.02 63.68C76.05 63.41 76.08 63.13 76.13 62.86C76.17 62.59 76.21 62.32 76.27 62.05C76.32 61.78 76.38 61.51 76.44 61.24C76.5 60.95 76.57 60.66 76.65 60.37C76.73 60.08 76.81 59.79 76.89 59.5C76.98 59.22 77.07 58.93 77.17 58.65C77.26 58.36 77.37 58.08 77.47 57.8C77.59 57.51 77.71 57.22 77.83 56.93L77.87 56.82L77.99 56.59C78.07 56.45 78.14 56.31 78.21 56.17C78.29 56.03 78.37 55.89 78.44 55.75C78.52 55.62 78.6 55.48 78.68 55.34C78.76 55.21 78.84 55.07 78.93 54.94C79.22 54.48 79.53 54.03 79.87 53.6C80.2 53.17 80.56 52.75 80.94 52.36C81.31 51.97 81.71 51.59 82.13 51.24C82.55 50.88 82.98 50.55 83.43 50.25C83.46 51.23 83.44 52.22 83.37 53.21C83.29 54.19 83.17 55.18 82.99 56.15C82.81 57.12 82.57 58.08 82.29 59.03C82.01 59.98 81.67 60.91 81.29 61.82L81.01 62.46L80.76 63.02L80.5 63.55C80.36 63.82 80.23 64.08 80.08 64.35C79.54 65.39 78.97 66.36 78.33 67.33ZM82.57 54.66C82.7 54.73 82.81 54.81 82.91 54.91C82.88 54.71 82.84 54.49 82.79 54.27C82.75 54.42 82.67 54.55 82.57 54.66L82.57 54.66Z" />
			<path id="Layer" fill-rule="evenodd" class="shp7" d="M78.28 70.19C77.47 70.6 76.64 70.96 75.81 71.31C76.06 70.84 76.33 70.35 76.64 69.84C76.75 69.68 76.85 69.51 76.95 69.35C77.06 69.19 77.17 69.03 77.27 68.87C77.38 68.71 77.49 68.55 77.6 68.39C77.71 68.23 77.82 68.07 77.93 67.91C78.33 67.34 78.77 66.81 79.25 66.31C79.77 65.76 80.33 65.25 80.92 64.78L81.4 64.43L81.45 64.39L81.6 64.3C81.94 64.09 82.28 63.89 82.63 63.71C82.94 63.55 83.25 63.41 83.57 63.29C83.89 63.16 84.21 63.06 84.54 62.96C84.87 62.87 85.21 62.8 85.55 62.74C85.89 62.69 86.23 62.65 86.57 62.62C86.27 63.17 85.94 63.69 85.58 64.2C85.22 64.71 84.84 65.2 84.42 65.66C84.01 66.13 83.58 66.57 83.12 66.99C82.66 67.41 82.18 67.81 81.68 68.17L81.32 68.44L81.01 68.66L80.7 68.86L80.21 69.15C79.57 69.52 78.93 69.87 78.28 70.19L78.28 70.19ZM84.67 64.73L84.67 64.73C84.68 64.75 84.69 64.77 84.69 64.8C84.7 64.82 84.71 64.84 84.72 64.86C84.73 64.88 84.73 64.9 84.74 64.92C84.75 64.95 84.75 64.97 84.76 64.99C84.77 64.96 84.78 64.92 84.8 64.89C84.81 64.86 84.82 64.82 84.84 64.79C84.85 64.76 84.86 64.72 84.87 64.69C84.89 64.65 84.9 64.62 84.91 64.59C84.89 64.6 84.87 64.62 84.85 64.63C84.83 64.65 84.81 64.66 84.79 64.67C84.77 64.68 84.75 64.69 84.73 64.7C84.71 64.71 84.69 64.72 84.66 64.73L84.67 64.73ZM76.19 66.44C76.18 67.88 76.11 69.32 75.96 70.75C75.46 70.06 74.97 69.34 74.46 68.53C74.29 68.28 74.13 68.02 73.97 67.75C73.81 67.49 73.65 67.23 73.5 66.96C73.34 66.7 73.19 66.43 73.04 66.16C72.9 65.89 72.75 65.62 72.61 65.35C72.48 65.11 72.35 64.87 72.23 64.62C72.11 64.37 71.99 64.12 71.88 63.87C71.77 63.62 71.66 63.37 71.56 63.11C71.46 62.86 71.36 62.6 71.27 62.34C71.14 61.99 71.02 61.63 70.9 61.27C70.79 60.91 70.68 60.54 70.59 60.18C70.49 59.81 70.4 59.44 70.32 59.08C70.24 58.71 70.17 58.33 70.11 57.96L70.11 57.58C70.06 56.98 70 56.34 70 55.69C70 55.15 70.02 54.6 70.07 54.06C70.12 53.52 70.19 52.98 70.3 52.44C70.4 51.91 70.53 51.38 70.69 50.86C70.85 50.33 71.04 49.82 71.25 49.32C71.81 50.13 72.32 50.98 72.79 51.84C73.27 52.71 73.69 53.61 74.06 54.52C74.44 55.44 74.76 56.37 75.03 57.32C75.31 58.27 75.53 59.23 75.7 60.21C75.74 60.44 75.78 60.67 75.82 60.91C75.82 60.86 75.91 61.33 75.91 61.51L75.97 62.09C76 62.39 76.03 62.68 76.06 62.98C76.15 64.14 76.19 65.29 76.19 66.44L76.19 66.44ZM72.91 53.49C72.91 53.49 72.91 53.49 72.91 53.49C72.91 53.49 72.91 53.49 72.91 53.49L72.91 53.49ZM72.91 53.49C72.95 53.49 72.99 53.49 73.03 53.49C73.07 53.49 73.11 53.49 73.15 53.5C73.19 53.5 73.23 53.51 73.27 53.52C73.31 53.52 73.34 53.53 73.38 53.54C73.23 53.37 73.07 53.2 72.91 53.04C72.92 53.08 72.93 53.12 72.93 53.15C72.94 53.19 72.94 53.23 72.94 53.27C72.94 53.3 72.94 53.34 72.93 53.38C72.93 53.42 72.92 53.45 72.91 53.49Z" />
			<path id="Layer" fill-rule="evenodd" class="shp7" d="M78.33 67.33C77.55 68.54 76.69 69.71 75.83 70.85C75.78 70.01 75.78 69.13 75.78 68.17C75.77 67.87 75.78 67.56 75.78 67.25C75.79 66.95 75.8 66.64 75.82 66.34C75.83 66.03 75.85 65.72 75.87 65.42C75.89 65.11 75.91 64.81 75.94 64.5C75.96 64.23 75.99 63.95 76.02 63.68C76.05 63.41 76.08 63.13 76.13 62.86C76.17 62.59 76.21 62.32 76.27 62.05C76.32 61.78 76.38 61.51 76.44 61.24C76.5 60.95 76.57 60.66 76.65 60.37C76.73 60.08 76.81 59.79 76.89 59.5C76.98 59.22 77.07 58.93 77.17 58.65C77.26 58.36 77.37 58.08 77.47 57.8C77.59 57.51 77.71 57.22 77.83 56.93L77.87 56.82L77.99 56.59C78.07 56.45 78.14 56.31 78.21 56.17C78.29 56.03 78.37 55.89 78.44 55.75C78.52 55.62 78.6 55.48 78.68 55.34C78.76 55.21 78.84 55.07 78.93 54.94C79.22 54.48 79.53 54.03 79.87 53.6C80.2 53.17 80.56 52.75 80.94 52.36C81.31 51.97 81.71 51.59 82.13 51.24C82.55 50.88 82.98 50.55 83.43 50.25C83.46 51.23 83.44 52.22 83.37 53.21C83.29 54.19 83.17 55.18 82.99 56.15C82.81 57.12 82.57 58.08 82.29 59.03C82.01 59.98 81.67 60.91 81.29 61.82L81.01 62.46L80.76 63.02L80.5 63.55C80.36 63.82 80.23 64.08 80.08 64.35C79.54 65.39 78.97 66.36 78.33 67.33ZM82.57 54.66C82.7 54.73 82.81 54.81 82.91 54.91C82.88 54.71 82.84 54.49 82.79 54.27C82.75 54.42 82.67 54.55 82.57 54.66L82.57 54.66Z" />
			<path id="Layer" fill-rule="evenodd" class="shp7" d="M78.28 70.19C77.47 70.6 76.64 70.96 75.81 71.31C76.06 70.84 76.33 70.35 76.64 69.84C76.75 69.68 76.85 69.51 76.95 69.35C77.06 69.19 77.17 69.03 77.27 68.87C77.38 68.71 77.49 68.55 77.6 68.39C77.71 68.23 77.82 68.07 77.93 67.91C78.33 67.34 78.77 66.81 79.25 66.31C79.77 65.76 80.33 65.25 80.92 64.78L81.4 64.43L81.45 64.39L81.6 64.3C81.94 64.09 82.28 63.89 82.63 63.71C82.94 63.55 83.25 63.41 83.57 63.29C83.89 63.16 84.21 63.06 84.54 62.96C84.87 62.87 85.21 62.8 85.55 62.74C85.89 62.69 86.23 62.65 86.57 62.62C86.27 63.17 85.94 63.69 85.58 64.2C85.22 64.71 84.84 65.2 84.42 65.66C84.01 66.13 83.58 66.57 83.12 66.99C82.66 67.41 82.18 67.81 81.68 68.17L81.32 68.44L81.01 68.66L80.7 68.86L80.21 69.15C79.57 69.52 78.93 69.87 78.28 70.19L78.28 70.19ZM84.67 64.73L84.67 64.73C84.68 64.75 84.69 64.77 84.69 64.8C84.7 64.82 84.71 64.84 84.72 64.86C84.73 64.88 84.73 64.9 84.74 64.92C84.75 64.95 84.75 64.97 84.76 64.99C84.77 64.96 84.78 64.92 84.8 64.89C84.81 64.86 84.82 64.82 84.84 64.79C84.85 64.76 84.86 64.72 84.87 64.69C84.89 64.65 84.9 64.62 84.91 64.59C84.89 64.6 84.87 64.62 84.85 64.63C84.83 64.65 84.81 64.66 84.79 64.67C84.77 64.68 84.75 64.69 84.73 64.7C84.71 64.71 84.69 64.72 84.66 64.73L84.67 64.73Z" />
			<path id="Layer" class="shp8" d="M132.74 84.25L120.69 90.03C120.23 90.25 119.85 90.59 119.57 91.01C119.29 91.43 119.14 91.92 119.12 92.42C119.1 92.93 119.22 93.42 119.46 93.87C119.7 94.31 120.06 94.67 120.49 94.93L149.05 111.58C149.35 111.76 149.69 111.88 150.04 111.93C150.39 111.98 150.75 111.97 151.09 111.89C151.44 111.8 151.76 111.66 152.05 111.45C152.34 111.25 152.59 110.99 152.78 110.69L159.72 99.9" />
			<path id="Layer" class="shp9" d="M198.26 56.33L102.19 0.98C101.53 0.61 100.79 0.41 100.03 0.41C99.27 0.41 98.52 0.61 97.86 0.99C97.2 1.37 96.66 1.92 96.28 2.57C95.9 3.23 95.7 3.98 95.7 4.74L95.7 62.32C95.7 63.6 96.38 64.79 97.5 65.44L199.92 124.54C200.27 124.75 200.67 124.85 201.08 124.85C201.49 124.85 201.89 124.75 202.24 124.54C202.6 124.34 202.89 124.04 203.09 123.69C203.3 123.34 203.4 122.94 203.4 122.53L203.4 65.19C203.4 64.29 203.28 63.4 203.05 62.54C202.82 61.67 202.47 60.84 202.02 60.07C201.57 59.29 201.02 58.58 200.39 57.95C199.75 57.32 199.04 56.77 198.26 56.33L198.26 56.33Z" />
			<path id="Layer" class="shp10" d="M102.2 5.34L195.37 58.93C195.86 59.21 196.32 59.56 196.72 59.96C197.13 60.37 197.48 60.82 197.77 61.32C198.05 61.81 198.27 62.34 198.42 62.89C198.57 63.45 198.64 64.01 198.64 64.59L198.64 107.74C198.64 108.16 198.53 108.56 198.33 108.92C198.12 109.28 197.82 109.57 197.47 109.78C197.11 109.99 196.7 110.1 196.29 110.1C195.88 110.1 195.47 109.99 195.11 109.79L100.1 55.31C99.92 55.2 99.76 55.08 99.61 54.94C99.47 54.79 99.34 54.63 99.24 54.45C99.14 54.28 99.06 54.09 99.01 53.89C98.95 53.69 98.93 53.49 98.93 53.29L98.93 7.24C98.93 6.85 99.03 6.48 99.22 6.14C99.41 5.81 99.68 5.53 100.02 5.34C100.35 5.15 100.72 5.05 101.11 5.05C101.49 5.05 101.87 5.15 102.2 5.34L102.2 5.34Z" />
			<path id="Layer" class="shp11" d="M141.4 86.74C140.3 86.95 139.22 86.11 138.97 84.85C138.73 83.59 139.43 82.41 140.53 82.19C141.63 81.98 142.71 82.83 142.95 84.08C143.2 85.34 142.5 86.53 141.4 86.74Z" />
			<path id="Layer" class="shp12" d="M127.24 63.89L170.54 89.9L191.93 77.47L153.71 55.23" />
			<path id="Layer" class="shp13" d="M180.75 58.71L133.94 30.18C133.69 30.04 133.4 29.96 133.11 29.96C132.82 29.97 132.54 30.04 132.29 30.19C132.04 30.34 131.84 30.56 131.7 30.81C131.56 31.06 131.5 31.35 131.51 31.64L131.51 47.9C131.51 48.04 131.52 48.19 131.56 48.33C131.6 48.47 131.65 48.61 131.72 48.74C131.79 48.87 131.88 48.98 131.98 49.09C132.08 49.2 132.2 49.29 132.32 49.36L179.13 77.29C179.37 77.43 179.65 77.51 179.93 77.5C180.22 77.5 180.49 77.43 180.74 77.28C180.98 77.14 181.19 76.94 181.33 76.69C181.47 76.45 181.54 76.17 181.54 75.88L181.78 60.73C181.79 60.53 181.78 60.33 181.73 60.14C181.69 59.95 181.62 59.76 181.53 59.58C181.44 59.41 181.33 59.24 181.2 59.1C181.06 58.95 180.91 58.82 180.75 58.71L180.75 58.71Z" />
			<path id="Layer" class="shp10" d="M169.55 67.08C171.23 69.43 174.18 70.08 176.14 68.55C178.09 67.02 178.32 63.88 176.64 61.54C174.96 59.2 172.01 58.53 170.05 60.06C168.09 61.59 167.87 64.73 169.55 67.08L169.55 67.08Z" />
			<path id="Layer" class="shp14" d="M164.96 55.81L145.86 44.32C145.7 44.25 145.51 44.24 145.34 44.29C145.17 44.34 145.03 44.46 144.93 44.61C144.84 44.77 144.81 44.95 144.85 45.13C144.89 45.31 144.99 45.46 145.13 45.57L164.22 57.06C164.39 57.14 164.57 57.15 164.74 57.09C164.92 57.04 165.06 56.92 165.15 56.77C165.24 56.61 165.27 56.43 165.24 56.25C165.2 56.08 165.1 55.92 164.96 55.81L164.96 55.81ZM164.17 60.48L137.86 44.64C137.69 44.59 137.52 44.59 137.36 44.65C137.2 44.71 137.07 44.82 136.98 44.97C136.9 45.12 136.87 45.3 136.9 45.46C136.93 45.63 137.02 45.78 137.15 45.89L163.44 61.74C163.6 61.81 163.79 61.83 163.96 61.77C164.13 61.72 164.28 61.6 164.37 61.45C164.46 61.29 164.49 61.11 164.46 60.93C164.42 60.75 164.32 60.6 164.17 60.49L164.17 60.48Z" />
			<path id="Layer" class="shp9" d="M171.41 61.87L124.62 33.34C124.37 33.19 124.09 33.12 123.8 33.12C123.51 33.12 123.23 33.2 122.98 33.35C122.73 33.5 122.53 33.71 122.39 33.97C122.25 34.22 122.18 34.51 122.19 34.8L122.19 51.05C122.19 51.65 122.49 52.21 123 52.52L169.81 80.45C170.05 80.59 170.34 80.67 170.62 80.67C170.91 80.66 171.19 80.58 171.44 80.44C171.68 80.29 171.89 80.08 172.02 79.83C172.16 79.58 172.23 79.3 172.22 79.01L172.47 63.85C172.47 63.66 172.45 63.46 172.41 63.27C172.36 63.08 172.29 62.89 172.2 62.72C172.11 62.54 171.99 62.38 171.86 62.24C171.73 62.1 171.57 61.97 171.41 61.86L171.41 61.87Z" />
			<path id="Layer" class="shp10" d="M160.21 70.23C161.89 72.58 164.84 73.23 166.8 71.7C168.75 70.17 168.98 67.03 167.3 64.69C165.62 62.35 162.67 61.69 160.71 63.22C158.75 64.75 158.53 67.89 160.21 70.23Z" />
			<path id="Layer" class="shp14" d="M155.62 58.97L136.51 47.47C136.35 47.4 136.16 47.38 135.99 47.44C135.81 47.49 135.67 47.61 135.58 47.76C135.49 47.92 135.45 48.1 135.49 48.28C135.53 48.46 135.63 48.61 135.78 48.72L154.87 60.21C155.03 60.29 155.22 60.3 155.39 60.25C155.56 60.19 155.71 60.08 155.8 59.92C155.89 59.77 155.92 59.58 155.89 59.4C155.85 59.23 155.75 59.07 155.6 58.97L155.61 58.96L155.62 58.97ZM154.82 63.67L128.51 47.8C128.35 47.72 128.16 47.71 127.99 47.77C127.82 47.82 127.67 47.94 127.58 48.09C127.49 48.25 127.46 48.43 127.5 48.61C127.53 48.79 127.64 48.94 127.78 49.05L154.1 64.89C154.26 64.96 154.45 64.98 154.62 64.92C154.79 64.87 154.94 64.75 155.03 64.6C155.12 64.44 155.15 64.26 155.12 64.08C155.08 63.9 154.98 63.75 154.83 63.64L154.82 63.67Z" />
			<path id="Layer" class="shp5" d="M159.67 63.78L112.87 35.25C112.62 35.11 112.34 35.03 112.05 35.04C111.76 35.04 111.47 35.12 111.23 35.27C110.98 35.42 110.77 35.63 110.64 35.88C110.5 36.14 110.43 36.42 110.44 36.71L110.44 52.97C110.44 53.11 110.46 53.26 110.49 53.4C110.53 53.54 110.58 53.68 110.66 53.81C110.73 53.93 110.81 54.05 110.92 54.16C111.02 54.26 111.13 54.35 111.26 54.43L158.06 82.36C158.31 82.5 158.59 82.58 158.88 82.58C159.16 82.57 159.44 82.49 159.69 82.35C159.94 82.2 160.14 81.99 160.28 81.74C160.42 81.49 160.49 81.21 160.48 80.92L160.72 65.76C160.74 64.96 160.34 64.21 159.67 63.78L159.67 63.78Z" />
			<path id="Layer" class="shp5" d="M159.67 63.78L112.87 35.25C112.62 35.11 112.34 35.03 112.05 35.04C111.76 35.04 111.47 35.12 111.23 35.27C110.98 35.42 110.77 35.63 110.64 35.88C110.5 36.14 110.43 36.42 110.44 36.71L110.44 52.97C110.44 53.11 110.46 53.26 110.49 53.4C110.53 53.54 110.58 53.68 110.66 53.81C110.73 53.93 110.81 54.05 110.92 54.16C111.02 54.26 111.13 54.35 111.26 54.43L158.06 82.36C158.31 82.5 158.59 82.58 158.88 82.58C159.16 82.57 159.44 82.49 159.69 82.35C159.94 82.2 160.14 81.99 160.28 81.74C160.42 81.49 160.49 81.21 160.48 80.92L160.72 65.76C160.74 64.96 160.34 64.21 159.67 63.78L159.67 63.78Z" />
			<path id="Layer" class="shp10" d="M148.46 72.15C150.14 74.5 153.09 75.15 155.05 73.62C157 72.09 157.23 68.95 155.55 66.6C153.87 64.26 150.92 63.6 148.96 65.13C147.01 66.66 146.8 69.8 148.46 72.15L148.46 72.15Z" />
			<path id="Layer" class="shp14" d="M143.87 60.88L124.77 49.39C124.61 49.31 124.42 49.3 124.25 49.35C124.07 49.41 123.93 49.52 123.84 49.68C123.74 49.84 123.71 50.02 123.75 50.2C123.79 50.38 123.89 50.53 124.04 50.64L143.13 62.13C143.29 62.21 143.48 62.22 143.65 62.17C143.83 62.11 143.97 62 144.07 61.84C144.16 61.68 144.19 61.5 144.15 61.32C144.11 61.14 144.01 60.99 143.86 60.88L143.87 60.88L143.87 60.88ZM143.08 65.56L116.76 49.72C116.6 49.64 116.41 49.63 116.24 49.68C116.07 49.74 115.92 49.85 115.83 50.01C115.74 50.16 115.71 50.35 115.74 50.53C115.78 50.7 115.88 50.86 116.03 50.96L142.34 66.8C142.51 66.88 142.7 66.9 142.87 66.84C143.04 66.79 143.19 66.67 143.28 66.52C143.37 66.36 143.4 66.17 143.37 66C143.33 65.82 143.23 65.66 143.08 65.56L143.08 65.56Z" />
			<path id="Layer" class="shp15" d="M98.25 62.19C97.5 62.83 96.79 63.53 96.13 64.27C95.47 65.01 94.85 65.79 94.3 66.61C93.74 67.43 93.23 68.28 92.78 69.17C92.34 70.05 91.95 70.97 91.62 71.9C89.29 78.33 95.11 88.84 95.11 88.84L104.17 81.67" />
			<path id="Layer" class="shp16" d="M97.27 147.21L94.81 145.85L95.46 142.34C95.46 142.34 99.12 142.69 99.44 143.99" />
			<path id="Layer" class="shp9" d="M98.17 147.16C98.73 146.82 99.31 146.51 99.88 146.21C101.3 145.44 103.35 144.63 104.23 143.17C104.32 143.02 104.38 142.86 104.42 142.7C104.46 142.53 104.48 142.36 104.47 142.19C104.46 142.02 104.42 141.85 104.36 141.69C104.3 141.53 104.22 141.38 104.11 141.24C102.82 139.69 100.01 142.24 98.57 140.52C98.28 140.18 98.15 134.77 98.15 134.77L92.67 136.25C92.67 136.25 91.74 147.12 91.84 147.79C91.95 148.46 93.83 149.07 93.83 149.07C93.97 149.05 94.11 149.01 94.25 148.97C94.38 148.93 94.52 148.88 94.65 148.82C94.78 148.77 94.91 148.71 95.04 148.64C95.17 148.58 95.29 148.51 95.41 148.43C95.99 148.01 95.47 142.91 96.2 143.63C96.93 144.34 97.25 147.13 97.25 147.13C97.56 147.18 97.87 147.19 98.17 147.16L98.17 147.16Z" />
			<path id="Layer" class="shp16" d="M107.74 152.46L105.28 151.13L105.92 147.62C105.92 147.62 109.58 147.96 109.91 149.26" />
			<path id="Layer" class="shp9" d="M108.67 152.41C109.22 152.07 109.8 151.77 110.37 151.47C111.79 150.69 113.84 149.89 114.72 148.43C114.81 148.28 114.87 148.12 114.91 147.95C114.96 147.79 114.97 147.61 114.96 147.44C114.95 147.27 114.91 147.1 114.85 146.94C114.79 146.78 114.71 146.63 114.6 146.5C113.31 144.94 110.5 147.5 109.06 145.78C108.77 145.44 108.64 140.03 108.64 140.03L103.16 141.51C103.16 141.51 102.23 152.41 102.33 153.06C102.43 153.7 104.32 154.34 104.32 154.34C104.46 154.31 104.59 154.28 104.73 154.23C104.87 154.19 105 154.14 105.14 154.09C105.27 154.04 105.4 153.98 105.53 153.91C105.65 153.85 105.78 153.78 105.9 153.7C106.47 153.28 105.95 148.18 106.68 148.9C107.42 149.61 107.74 152.4 107.74 152.4C108.05 152.44 108.36 152.45 108.67 152.41Z" />
			<path id="Layer" class="shp17" d="M89.88 117.13L88.27 138.72C88.27 138.72 90.84 142.27 99.47 140.3L99.55 125.74M99.85 121.41C99.66 123.27 99.85 143.77 99.85 143.77C99.85 143.77 102.23 148.23 112.62 143.77L112.47 126.35" />
			<path id="Layer" class="shp17" d="M89.08 124.26C89.78 124.75 90.03 122.24 90.77 122.67C91.44 123.06 92.12 123.43 92.82 123.78C93.51 124.14 94.21 124.47 94.92 124.78C95.63 125.1 96.35 125.39 97.08 125.66C97.81 125.94 98.54 126.19 99.29 126.43L99.35 126.42C99.42 126.39 99.5 126.37 99.58 126.37C99.66 126.36 99.73 126.37 99.81 126.4C99.88 126.43 99.95 126.47 100.01 126.52C100.06 126.58 100.11 126.64 100.14 126.72C101.98 127.26 103.84 127.69 105.73 128C108.16 128.39 110.16 126.59 112.65 126.47C112.65 116.94 112.7 89.81 108.64 84.03L96.63 79.99C96.57 80.98 90.8 87.67 90.94 95.82C91.1 105.01 89.91 113.68 89.7 116.55C89.67 117.04 89.1 123.74 89.08 124.26L89.08 124.26Z" />
			<path id="Layer" class="shp15" d="M109.75 73.07L108.64 84C108.64 84 99.68 84.36 95.82 81.7L95.82 72.43" />
			<path id="Layer" class="shp18" d="M121.14 65.87L120.22 67.12C120.35 66.87 120.46 66.61 120.58 66.35C120.69 66.1 120.8 65.84 120.91 65.58C121.02 65.32 121.12 65.06 121.22 64.79C121.32 64.53 121.42 64.27 121.51 64C121.77 63.27 120.6 62.98 120.35 63.71L120.21 64.08C120.32 63.7 120.43 63.31 120.53 62.92C120.57 62.76 120.55 62.6 120.47 62.46C120.38 62.32 120.25 62.22 120.09 62.18C119.94 62.14 119.77 62.16 119.63 62.25C119.49 62.33 119.4 62.47 119.36 62.63C119.3 62.88 119.23 63.13 119.16 63.38C119.09 63.64 119.02 63.88 118.95 64.13C118.87 64.38 118.79 64.63 118.71 64.88C118.63 65.12 118.54 65.37 118.46 65.62C118.5 65.4 118.55 65.18 118.59 64.96C118.63 64.74 118.67 64.52 118.71 64.3C118.74 64.08 118.78 63.86 118.8 63.64C118.83 63.42 118.86 63.2 118.88 62.98C118.96 62.21 117.75 62.25 117.68 62.98C117.58 63.99 117.4 64.99 117.14 65.97C117.14 65.88 117.14 65.8 117.14 65.71C117.13 65.62 117.13 65.54 117.12 65.45C117.11 65.37 117.1 65.28 117.09 65.19C117.08 65.11 117.06 65.02 117.05 64.94C117.04 64.9 117.03 64.85 117.02 64.81C117.01 64.77 116.99 64.73 116.97 64.7C116.95 64.66 116.92 64.63 116.89 64.59C116.86 64.56 116.83 64.53 116.8 64.51C116.79 64.48 116.78 64.44 116.77 64.41C116.76 64.37 116.75 64.34 116.74 64.31C116.73 64.27 116.72 64.24 116.71 64.21C116.7 64.17 116.69 64.14 116.68 64.11C116.63 63.97 116.54 63.86 116.42 63.79C116.3 63.71 116.16 63.68 116.02 63.7C115.87 63.73 115.75 63.8 115.65 63.9C115.56 64.01 115.51 64.15 115.5 64.29L115.43 68.79C115.21 69.26 114.92 69.69 114.58 70.08C115.16 70.48 115.72 70.91 116.25 71.36C116.73 71.77 117.19 72.2 117.62 72.65C118 72.17 118.38 71.68 118.73 71.18C118.74 71.17 118.75 71.16 118.76 71.15C118.77 71.14 118.78 71.13 118.79 71.12C118.8 71.11 118.81 71.1 118.82 71.09C118.83 71.08 118.84 71.07 118.85 71.06C119.11 70.66 119.38 70.26 119.66 69.87C119.93 69.48 120.2 69.09 120.48 68.7C120.76 68.31 121.04 67.92 121.32 67.53C121.6 67.14 121.88 66.76 122.17 66.37C122.64 65.85 121.59 65.26 121.14 65.87L121.14 65.87Z" />
			<path id="Layer" class="shp15" d="M104.06 63.1C104.06 63.1 108.29 64.24 110.01 66.96C110.28 67.43 110.54 67.9 110.79 68.38C111.04 68.86 111.29 69.35 111.53 69.83C111.76 70.32 111.99 70.81 112.21 71.31C112.43 71.8 112.64 72.3 112.85 72.8L115.97 67.95C115.97 67.95 119.77 69.11 121.27 70.98C121.27 70.98 116.77 80.82 112.85 81.66C108.92 82.5 104.75 75.88 104.75 75.88C104.75 75.88 103.89 78.65 104.06 75.7" />
			<path id="Layer" class="shp19" d="M106.75 73.61C106.44 73.37 106.15 73.1 105.89 72.81C105.62 72.52 105.37 72.21 105.14 71.89C104.91 71.57 104.71 71.23 104.53 70.88C104.35 70.53 104.2 70.17 104.06 69.8C103.56 68.06 104.19 66.55 104.78 64.94C104.94 64.54 105.09 64.14 105.22 63.73C105.34 63.32 105.45 62.9 105.54 62.49C105.64 62.07 105.71 61.65 105.77 61.22C105.83 60.8 105.87 60.37 105.89 59.94C105.94 58.26 105.75 56.57 105.63 54.89C105.63 54.88 105.63 54.86 105.63 54.84C105.62 54.82 105.62 54.8 105.62 54.79C105.62 54.77 105.62 54.75 105.63 54.73C105.63 54.71 105.63 54.69 105.63 54.68C105.07 52.78 103.91 51.17 101.63 50.98C95.72 50.48 95.38 57.02 95.43 59.69C95.47 62.35 95.75 64.15 93.79 65.26C91.83 66.37 90.41 69.29 92.29 71.65C94.16 74.01 92.48 73.15 91.23 75.25C89.98 77.34 90.31 79.96 92.87 80.91C95.43 81.85 107.33 80.08 108.42 78.98C108.52 78.87 108.6 78.75 108.67 78.62C108.75 78.5 108.81 78.37 108.86 78.23C108.9 78.09 108.94 77.95 108.96 77.81C108.98 77.66 108.99 77.52 108.98 77.37C108.91 77 108.82 76.64 108.68 76.3C108.55 75.95 108.39 75.61 108.2 75.29C108.01 74.97 107.79 74.67 107.55 74.39C107.31 74.11 107.04 73.85 106.75 73.61L106.75 73.61Z" />
			<path id="Layer" fill-rule="evenodd" class="shp9" d="M112.56 19.62C112.81 19.98 113.04 20.35 113.23 20.74C113.43 21.13 113.6 21.53 113.74 21.95C113.88 22.36 113.99 22.78 114.08 23.21C114.16 23.64 114.21 24.07 114.24 24.51C114.26 24.71 114.27 24.91 114.26 25.11C114.25 25.31 114.22 25.51 114.18 25.7C114.13 25.9 114.07 26.09 113.98 26.27C113.9 26.45 113.8 26.63 113.69 26.79C113.59 26.9 113.47 26.99 113.35 27.06C113.22 27.13 113.08 27.18 112.94 27.2C112.79 27.23 112.65 27.23 112.5 27.21C112.36 27.18 112.22 27.14 112.09 27.07C112.01 27.04 111.93 27 111.86 26.96C111.78 26.92 111.7 26.87 111.63 26.82C111.56 26.78 111.49 26.72 111.42 26.67C111.36 26.61 111.29 26.55 111.23 26.49C111.18 26.44 111.12 26.38 111.07 26.33C111.02 26.27 110.97 26.22 110.93 26.16C110.88 26.1 110.84 26.04 110.8 25.98C110.75 25.92 110.72 25.85 110.68 25.79L110.52 25.49C110.48 25.57 110.43 25.64 110.37 25.7C110.22 25.82 110.03 25.9 109.84 25.93C109.52 25.99 109.19 25.95 108.89 25.81C108.71 25.74 108.54 25.65 108.38 25.54C108.22 25.44 108.07 25.32 107.92 25.2C107.78 25.07 107.65 24.93 107.53 24.78C107.41 24.63 107.3 24.47 107.2 24.3C107.09 24.12 106.99 23.93 106.9 23.74C106.81 23.54 106.73 23.34 106.67 23.13C106.61 22.93 106.56 22.72 106.52 22.51C106.49 22.29 106.46 22.08 106.46 21.87C106.36 21.17 106.58 20.46 107.06 19.94C107.16 19.84 107.27 19.76 107.4 19.69C107.53 19.63 107.66 19.59 107.8 19.57C107.94 19.54 108.08 19.54 108.22 19.57C108.36 19.59 108.49 19.63 108.62 19.69C108.88 19.79 109.12 19.94 109.32 20.13C109.5 20.28 109.65 20.45 109.78 20.64L109.9 20.84L109.9 20.27L111.19 20.77L111.31 24.39C111.32 24.65 111.4 24.9 111.55 25.11C111.67 25.32 111.85 25.49 112.07 25.58C112.7 25.83 112.98 25.29 112.94 23.97C112.92 23.65 112.88 23.33 112.82 23.01C112.76 22.69 112.68 22.38 112.57 22.07C112.47 21.76 112.34 21.46 112.19 21.17C112.05 20.89 111.88 20.61 111.69 20.34C111.53 20.07 111.34 19.81 111.13 19.57C110.93 19.33 110.7 19.11 110.46 18.9C110.22 18.7 109.96 18.51 109.69 18.34C109.42 18.18 109.14 18.03 108.84 17.91C108.63 17.8 108.4 17.73 108.17 17.69C107.93 17.65 107.69 17.64 107.45 17.67C107.22 17.7 106.99 17.77 106.77 17.86C106.55 17.96 106.35 18.09 106.17 18.25C105.98 18.44 105.81 18.66 105.66 18.89C105.52 19.12 105.4 19.36 105.31 19.62C105.22 19.87 105.16 20.14 105.13 20.41C105.1 20.68 105.1 20.95 105.13 21.22C105.15 21.56 105.19 21.91 105.26 22.24C105.32 22.58 105.41 22.91 105.52 23.24C105.62 23.56 105.75 23.88 105.91 24.19C106.06 24.5 106.23 24.8 106.42 25.08C106.57 25.36 106.75 25.63 106.94 25.88C107.14 26.14 107.35 26.37 107.58 26.59C107.82 26.81 108.07 27.01 108.33 27.19C108.6 27.36 108.88 27.52 109.17 27.65C109.57 27.82 110.01 27.91 110.45 27.9C110.74 27.92 111.03 27.87 111.29 27.75L111.55 27.61L112.33 29.06L112.2 29.15C112.07 29.21 111.95 29.27 111.82 29.33C111.61 29.41 111.4 29.48 111.17 29.51C111.1 29.51 111.03 29.52 110.96 29.53C110.89 29.53 110.82 29.53 110.75 29.53C110.67 29.53 110.6 29.53 110.53 29.53C110.46 29.52 110.39 29.51 110.32 29.51C110.22 29.49 110.13 29.48 110.04 29.46C109.95 29.45 109.86 29.43 109.77 29.4C109.67 29.38 109.58 29.35 109.5 29.32C109.41 29.29 109.32 29.26 109.23 29.23C108.98 29.12 108.74 29 108.51 28.87C108.28 28.74 108.05 28.59 107.84 28.43C107.62 28.27 107.41 28.1 107.22 27.92C107.02 27.74 106.83 27.54 106.66 27.34C106.45 27.11 106.25 26.87 106.06 26.62C105.88 26.38 105.7 26.12 105.53 25.86C105.36 25.6 105.21 25.34 105.06 25.06C104.92 24.79 104.79 24.51 104.66 24.23C104.54 23.95 104.43 23.68 104.34 23.39C104.24 23.11 104.16 22.83 104.09 22.54C104.02 22.25 103.97 21.96 103.92 21.66C103.88 21.37 103.85 21.07 103.84 20.77C103.82 20.52 103.82 20.27 103.84 20.02C103.86 19.77 103.89 19.53 103.94 19.28C103.99 19.04 104.06 18.8 104.14 18.56C104.22 18.32 104.32 18.09 104.43 17.87C104.53 17.69 104.64 17.51 104.76 17.35C104.89 17.18 105.03 17.03 105.19 16.89C105.35 16.75 105.52 16.63 105.69 16.53C105.87 16.42 106.06 16.33 106.26 16.26C106.46 16.2 106.68 16.15 106.89 16.12C107.11 16.09 107.32 16.08 107.54 16.09C107.75 16.1 107.97 16.13 108.18 16.18C108.39 16.23 108.6 16.3 108.79 16.39C109.18 16.56 109.55 16.75 109.91 16.97C110.27 17.19 110.61 17.44 110.93 17.71C111.25 17.99 111.55 18.28 111.82 18.6C112.09 18.92 112.34 19.26 112.56 19.62L112.56 19.62ZM109.73 24.19C109.94 23.92 110.03 23.58 109.99 23.24C109.99 23.14 109.98 23.03 109.96 22.93C109.95 22.83 109.92 22.72 109.9 22.62C109.87 22.52 109.83 22.43 109.79 22.33C109.75 22.23 109.7 22.14 109.65 22.05C109.61 21.97 109.56 21.9 109.5 21.83C109.45 21.76 109.38 21.69 109.32 21.63C109.25 21.57 109.18 21.52 109.11 21.47C109.03 21.42 108.95 21.38 108.87 21.34C108.81 21.31 108.74 21.29 108.67 21.28C108.6 21.26 108.53 21.26 108.46 21.27C108.39 21.28 108.32 21.3 108.26 21.33C108.19 21.36 108.13 21.4 108.08 21.45C108.02 21.51 107.98 21.58 107.94 21.65C107.89 21.73 107.86 21.8 107.84 21.88C107.81 21.96 107.8 22.05 107.79 22.13C107.78 22.21 107.78 22.3 107.8 22.38C107.81 22.8 107.94 23.22 108.16 23.58C108.35 23.9 108.63 24.16 108.98 24.31C109.23 24.44 109.53 24.39 109.73 24.19ZM189.18 90.38C189.38 90.77 189.55 91.17 189.69 91.58C189.83 91.99 189.94 92.42 190.03 92.84C190.11 93.27 190.16 93.71 190.18 94.14C190.21 94.34 190.22 94.54 190.21 94.74C190.2 94.94 190.17 95.14 190.13 95.34C190.08 95.53 190.02 95.72 189.93 95.9C189.85 96.09 189.75 96.26 189.64 96.42C189.54 96.53 189.42 96.62 189.3 96.69C189.17 96.76 189.03 96.81 188.89 96.84C188.74 96.86 188.6 96.86 188.45 96.84C188.31 96.82 188.17 96.77 188.04 96.7C187.96 96.67 187.88 96.63 187.81 96.59C187.73 96.55 187.65 96.51 187.58 96.46C187.51 96.41 187.44 96.36 187.37 96.3C187.3 96.24 187.24 96.18 187.18 96.12C187.13 96.07 187.07 96.02 187.02 95.96C186.97 95.91 186.92 95.85 186.88 95.79C186.83 95.73 186.79 95.67 186.75 95.61C186.7 95.55 186.66 95.49 186.63 95.42L186.47 95.12C186.46 95.14 186.45 95.16 186.44 95.18C186.43 95.2 186.41 95.21 186.4 95.23C186.39 95.25 186.37 95.27 186.36 95.29C186.35 95.3 186.33 95.32 186.32 95.34C186.17 95.46 185.98 95.54 185.79 95.56C185.47 95.63 185.14 95.59 184.85 95.45C184.67 95.38 184.5 95.29 184.34 95.18C184.17 95.08 184.02 94.96 183.88 94.83C183.74 94.7 183.6 94.56 183.48 94.41C183.36 94.26 183.25 94.1 183.16 93.94C183.04 93.75 182.94 93.56 182.85 93.37C182.76 93.17 182.68 92.97 182.62 92.77C182.56 92.56 182.51 92.35 182.47 92.14C182.43 91.92 182.41 91.71 182.41 91.49C182.31 90.79 182.53 90.08 183.01 89.56C183.11 89.47 183.22 89.38 183.35 89.32C183.47 89.26 183.61 89.22 183.75 89.2C183.88 89.17 184.02 89.17 184.16 89.19C184.3 89.22 184.44 89.26 184.56 89.32C184.82 89.42 185.06 89.57 185.26 89.76C185.44 89.91 185.59 90.08 185.73 90.27L185.85 90.48L185.85 89.9L187.14 90.4L187.26 94.01C187.28 94.27 187.36 94.52 187.5 94.74C187.62 94.95 187.8 95.11 188.02 95.21C188.67 95.45 188.93 94.92 188.89 93.6C188.87 93.28 188.84 92.95 188.77 92.64C188.71 92.32 188.63 92 188.53 91.69C188.42 91.39 188.29 91.09 188.15 90.8C188 90.51 187.84 90.23 187.65 89.96C187.48 89.69 187.3 89.44 187.09 89.2C186.88 88.96 186.66 88.73 186.42 88.53C186.18 88.32 185.92 88.14 185.65 87.97C185.38 87.8 185.1 87.66 184.81 87.54C184.59 87.43 184.37 87.35 184.13 87.31C183.9 87.27 183.65 87.27 183.42 87.29C183.18 87.32 182.95 87.39 182.73 87.49C182.51 87.58 182.31 87.71 182.13 87.87C181.94 88.07 181.77 88.28 181.63 88.51C181.49 88.75 181.37 88.99 181.28 89.25C181.2 89.51 181.14 89.78 181.11 90.05C181.08 90.32 181.09 90.59 181.12 90.86C181.14 91.2 181.18 91.55 181.24 91.88C181.31 92.22 181.39 92.55 181.5 92.88C181.61 93.2 181.74 93.52 181.89 93.83C182.04 94.14 182.22 94.44 182.41 94.72C182.56 95 182.74 95.26 182.94 95.5C183.14 95.75 183.36 95.98 183.6 96.19C183.83 96.4 184.09 96.59 184.35 96.76C184.62 96.93 184.9 97.08 185.19 97.21C185.59 97.38 186.03 97.47 186.47 97.47C186.76 97.48 187.05 97.43 187.31 97.31L187.57 97.17L188.35 98.62L188.22 98.71C188.09 98.78 187.97 98.84 187.84 98.89C187.78 98.91 187.73 98.93 187.68 98.95C187.63 98.97 187.57 98.98 187.52 99C187.47 99.01 187.41 99.03 187.36 99.04C187.3 99.05 187.25 99.06 187.19 99.07C187.12 99.08 187.05 99.08 186.98 99.09C186.91 99.09 186.83 99.1 186.76 99.1C186.69 99.1 186.62 99.09 186.55 99.09C186.47 99.08 186.4 99.08 186.33 99.07C186.24 99.06 186.15 99.04 186.05 99.02C185.96 99.01 185.87 98.99 185.78 98.96C185.69 98.94 185.6 98.91 185.51 98.88C185.42 98.85 185.34 98.82 185.25 98.78C185 98.68 184.76 98.56 184.53 98.43C184.3 98.29 184.07 98.15 183.86 97.99C183.64 97.83 183.43 97.66 183.24 97.48C183.04 97.3 182.85 97.1 182.68 96.9C182.47 96.67 182.27 96.43 182.08 96.19C181.9 95.94 181.72 95.69 181.55 95.42C181.38 95.16 181.23 94.89 181.08 94.62C180.94 94.35 180.8 94.07 180.68 93.78C180.56 93.51 180.45 93.23 180.36 92.95C180.26 92.67 180.18 92.38 180.11 92.09C180.04 91.8 179.98 91.51 179.94 91.22C179.9 90.92 179.87 90.63 179.86 90.33C179.84 90.08 179.84 89.83 179.86 89.58C179.88 89.33 179.91 89.09 179.96 88.84C180.01 88.6 180.07 88.36 180.16 88.12C180.24 87.89 180.34 87.66 180.45 87.43C180.55 87.25 180.66 87.07 180.78 86.91C180.91 86.74 181.05 86.59 181.21 86.45C181.37 86.31 181.54 86.19 181.71 86.09C181.89 85.98 182.08 85.89 182.28 85.82C182.49 85.75 182.7 85.71 182.91 85.68C183.13 85.65 183.34 85.64 183.56 85.65C183.78 85.66 183.99 85.69 184.2 85.74C184.41 85.79 184.62 85.86 184.82 85.95C185.2 86.12 185.57 86.32 185.92 86.55C186.27 86.78 186.61 87.04 186.92 87.32C187.23 87.6 187.53 87.9 187.79 88.22C188.06 88.55 188.3 88.89 188.51 89.25C188.76 89.61 188.99 89.99 189.18 90.38ZM185.68 93.83C185.89 93.56 185.99 93.22 185.95 92.88C185.94 92.77 185.93 92.67 185.92 92.56C185.9 92.46 185.88 92.36 185.85 92.26C185.82 92.16 185.78 92.06 185.74 91.96C185.7 91.87 185.65 91.77 185.6 91.69C185.56 91.61 185.51 91.53 185.45 91.46C185.4 91.39 185.34 91.33 185.27 91.27C185.21 91.21 185.14 91.15 185.06 91.1C184.99 91.06 184.91 91.01 184.83 90.98C184.76 90.95 184.7 90.92 184.63 90.91C184.56 90.9 184.49 90.89 184.42 90.9C184.35 90.91 184.28 90.93 184.21 90.96C184.15 90.99 184.09 91.03 184.04 91.08C183.98 91.14 183.93 91.21 183.89 91.28C183.85 91.35 183.81 91.43 183.79 91.51C183.76 91.59 183.75 91.67 183.74 91.76C183.73 91.84 183.73 91.92 183.75 92.01C183.76 92.43 183.89 92.84 184.11 93.2C184.3 93.53 184.58 93.78 184.93 93.94C184.99 93.97 185.05 93.99 185.12 94C185.19 94.01 185.25 94.01 185.32 94C185.39 93.99 185.45 93.97 185.51 93.94C185.57 93.91 185.63 93.87 185.68 93.83Z" />
			<path id="Layer" class="shp20" d="M60.32 116.68L38.55 104.29L16.78 116.7C16.78 116.7 28.89 124.26 39.73 130.62C46.62 125.76 52.73 120.19 60.32 116.68L60.32 116.68Z" />
		</g>
		<g id="Layer">
			<path id="g" fill-rule="evenodd" class="shp21" d="M21 81.88L21 108.81L41.98 120.83L65.68 106.82L65.68 79.88" />
			<path id="g" fill-rule="evenodd" class="shp22" d="M21 81.88L21 108.81L41.98 120.83L65.68 106.82L65.68 79.88" />
		</g>
		<path id="Layer" class="shp23" d="M41.98 93.9L41.98 120.83L65.68 106.82L65.68 79.88L41.98 93.9Z" />
		<path id="Layer" class="shp9" d="M21 81.88L45.35 68L65.68 79.88L41.98 93.9L21 81.88Z" />
		<path id="Layer" fill-rule="evenodd" class="shp17" d="M44.38 74.19C45 74.23 45.6 74.32 46.2 74.46C46.81 74.59 47.4 74.76 47.97 74.98C48.55 75.2 49.11 75.45 49.64 75.75C50.89 76.48 51.57 77.24 51.66 78.04C51.76 78.83 51.35 79.52 50.38 80.11C50.27 80.18 50.15 80.24 50.03 80.3C49.91 80.36 49.79 80.42 49.66 80.47C49.54 80.52 49.41 80.56 49.28 80.6C49.15 80.64 49.02 80.67 48.89 80.7C48.45 80.8 48.01 80.85 47.56 80.83L47.08 80.79C47.12 80.9 47.15 81.02 47.17 81.13C47.16 81.2 47.15 81.27 47.14 81.34C47.13 81.41 47.11 81.47 47.09 81.54C47.07 81.6 47.04 81.67 47.01 81.73C46.98 81.79 46.95 81.85 46.91 81.91C46.66 82.34 46.29 82.7 45.86 82.94C45.61 83.09 45.35 83.22 45.08 83.34C44.81 83.45 44.53 83.54 44.25 83.62C43.96 83.69 43.68 83.75 43.39 83.78C43.1 83.82 42.8 83.83 42.51 83.83C42.21 83.84 41.9 83.82 41.6 83.79C41.3 83.76 41 83.7 40.71 83.63C40.42 83.55 40.13 83.46 39.85 83.35C39.57 83.23 39.29 83.1 39.03 82.95C38.03 82.36 37.52 81.67 37.48 80.87C37.48 80.66 37.51 80.45 37.57 80.25C37.63 80.05 37.72 79.86 37.83 79.68C37.95 79.51 38.08 79.35 38.24 79.21C38.4 79.07 38.57 78.95 38.76 78.86C38.85 78.81 38.95 78.75 39.04 78.7C39.14 78.65 39.23 78.61 39.33 78.57C39.43 78.52 39.53 78.48 39.63 78.45C39.73 78.41 39.84 78.38 39.94 78.36C40.02 78.33 40.11 78.31 40.19 78.29C40.28 78.27 40.36 78.26 40.45 78.24C40.53 78.23 40.62 78.22 40.7 78.21C40.79 78.2 40.87 78.19 40.96 78.18L41.31 78.18L40.67 77.8L42.47 76.68L46.64 79.13C46.8 79.22 46.97 79.28 47.14 79.33C47.32 79.37 47.5 79.39 47.68 79.39C47.86 79.39 48.04 79.37 48.21 79.33C48.39 79.28 48.56 79.22 48.72 79.13C49.6 78.58 49.28 77.86 47.77 76.96C47.37 76.74 46.95 76.55 46.52 76.39C46.1 76.22 45.66 76.09 45.21 75.99C44.77 75.89 44.31 75.83 43.86 75.79C43.4 75.76 42.95 75.76 42.49 75.78C42.01 75.79 41.52 75.83 41.05 75.9C40.57 75.97 40.09 76.07 39.63 76.21C39.16 76.34 38.71 76.5 38.27 76.7C37.82 76.89 37.39 77.12 36.98 77.37C35.47 78.31 34.72 79.44 34.73 80.75C34.73 82.03 35.53 83.17 37.09 84.09C38.79 85.04 40.72 85.5 42.66 85.42C43.14 85.43 43.63 85.4 44.1 85.34C44.58 85.28 45.05 85.19 45.52 85.07C45.98 84.95 46.44 84.79 46.88 84.6C47.33 84.42 47.76 84.2 48.17 83.96C48.32 83.87 48.46 83.78 48.59 83.68C48.73 83.59 48.86 83.48 48.99 83.38C49.12 83.27 49.24 83.16 49.36 83.04C49.48 82.92 49.59 82.8 49.7 82.67C50 82.36 50.21 81.99 50.34 81.58L50.43 81.18L52.81 81.31C52.81 81.39 52.81 81.46 52.81 81.53C52.77 81.73 52.71 81.92 52.64 82.11C52.53 82.41 52.4 82.7 52.23 82.97C51.98 83.33 51.7 83.67 51.38 83.97C50.96 84.37 50.5 84.73 50 85.03C49.65 85.25 49.28 85.44 48.91 85.62C48.53 85.8 48.15 85.96 47.75 86.1C47.36 86.24 46.97 86.36 46.56 86.47C46.16 86.57 45.75 86.65 45.34 86.71C44.89 86.79 44.44 86.85 43.99 86.9C43.54 86.94 43.08 86.96 42.63 86.97C42.17 86.98 41.71 86.97 41.26 86.94C40.81 86.92 40.35 86.87 39.9 86.81C39.49 86.76 39.09 86.69 38.68 86.6C38.28 86.52 37.88 86.41 37.49 86.28C37.1 86.15 36.71 86 36.34 85.84C35.96 85.67 35.59 85.49 35.23 85.28C34.94 85.13 34.67 84.95 34.41 84.76C34.15 84.56 33.91 84.34 33.68 84.11C33.46 83.87 33.25 83.62 33.07 83.35C32.88 83.08 32.72 82.8 32.58 82.5C32.47 82.24 32.38 81.97 32.32 81.69C32.26 81.42 32.23 81.13 32.23 80.85C32.23 80.57 32.26 80.29 32.32 80.01C32.38 79.73 32.47 79.46 32.58 79.2C32.72 78.9 32.88 78.61 33.06 78.34C33.24 78.06 33.45 77.8 33.67 77.56C33.89 77.31 34.14 77.09 34.39 76.88C34.65 76.67 34.93 76.49 35.21 76.32C35.76 75.99 36.33 75.69 36.92 75.43C37.51 75.16 38.12 74.94 38.73 74.76C39.35 74.58 39.98 74.44 40.62 74.34C41.25 74.25 41.9 74.19 42.54 74.18C43.15 74.14 43.77 74.14 44.38 74.19ZM44.87 80.81C44.85 80.7 44.82 80.6 44.77 80.5C44.72 80.4 44.67 80.3 44.6 80.21C44.53 80.13 44.45 80.05 44.36 79.98C44.27 79.91 44.17 79.86 44.07 79.81C43.95 79.74 43.82 79.67 43.68 79.62C43.55 79.56 43.41 79.51 43.27 79.47C43.13 79.44 42.99 79.41 42.84 79.39C42.7 79.37 42.55 79.36 42.41 79.36C42.27 79.35 42.14 79.36 42 79.37C41.87 79.39 41.73 79.41 41.6 79.44C41.47 79.48 41.34 79.52 41.22 79.57C41.09 79.62 40.97 79.69 40.86 79.76C40.47 79.94 40.23 80.33 40.22 80.76C40.28 81.2 40.56 81.58 40.97 81.76C41.1 81.84 41.23 81.9 41.37 81.96C41.51 82.01 41.65 82.06 41.79 82.09C41.93 82.13 42.08 82.16 42.23 82.17C42.37 82.19 42.52 82.2 42.67 82.19C42.81 82.2 42.95 82.19 43.09 82.17C43.24 82.16 43.37 82.13 43.51 82.09C43.65 82.06 43.78 82.01 43.92 81.96C44.05 81.9 44.17 81.84 44.3 81.77C44.67 81.6 44.91 81.22 44.9 80.81" />
	</g>
</svg>